<?xml version="1.0" encoding="UTF-8" ?>
<svg version="1.1" width="8" height="8" xmlns="http://www.w3.org/2000/svg" shape-rendering="crispEdges">
<rect x="0" y="0" width="1" height="1" fill="#333941" />
<rect x="1" y="0" width="1" height="1" fill="#333941" />
<rect x="2" y="0" width="1" height="1" fill="#333941" />
<rect x="7" y="0" width="1" height="1" fill="#FFFFFF" />
<rect x="0" y="1" width="1" height="1" fill="#333941" />
<rect x="1" y="1" width="1" height="1" fill="#FFFFFF" />
<rect x="2" y="1" width="1" height="1" fill="#FFFFFF" />
<rect x="3" y="1" width="1" height="1" fill="#333941" />
<rect x="4" y="1" width="1" height="1" fill="#333941" />
<rect x="5" y="1" width="1" height="1" fill="#333941" />
<rect x="0" y="2" width="1" height="1" fill="#333941" />
<rect x="1" y="2" width="1" height="1" fill="#DAE0EA" />
<rect x="2" y="2" width="1" height="1" fill="#DAE0EA" />
<rect x="3" y="2" width="1" height="1" fill="#FFFFFF" />
<rect x="4" y="2" width="1" height="1" fill="#8B93AF" />
<rect x="5" y="2" width="1" height="1" fill="#8B93AF" />
<rect x="6" y="2" width="1" height="1" fill="#333941" />
<rect x="1" y="3" width="1" height="1" fill="#333941" />
<rect x="2" y="3" width="1" height="1" fill="#DAE0EA" />
<rect x="3" y="3" width="1" height="1" fill="#DAE0EA" />
<rect x="4" y="3" width="1" height="1" fill="#FFFFFF" />
<rect x="5" y="3" width="1" height="1" fill="#4A5462" />
<rect x="6" y="3" width="1" height="1" fill="#333941" />
<rect x="1" y="4" width="1" height="1" fill="#333941" />
<rect x="2" y="4" width="1" height="1" fill="#8B93AF" />
<rect x="3" y="4" width="1" height="1" fill="#DAE0EA" />
<rect x="4" y="4" width="1" height="1" fill="#4A5462" />
<rect x="5" y="4" width="1" height="1" fill="#DF3E23" />
<rect x="6" y="4" width="1" height="1" fill="#73172D" />
<rect x="1" y="5" width="1" height="1" fill="#333941" />
<rect x="2" y="5" width="1" height="1" fill="#8B93AF" />
<rect x="3" y="5" width="1" height="1" fill="#4A5462" />
<rect x="4" y="5" width="1" height="1" fill="#DF3E23" />
<rect x="5" y="5" width="1" height="1" fill="#F9A31B" />
<rect x="6" y="5" width="1" height="1" fill="#DF3E23" />
<rect x="7" y="5" width="1" height="1" fill="#73172D" />
<rect x="0" y="6" width="1" height="1" fill="#FFFFFF" />
<rect x="2" y="6" width="1" height="1" fill="#333941" />
<rect x="3" y="6" width="1" height="1" fill="#333941" />
<rect x="4" y="6" width="1" height="1" fill="#73172D" />
<rect x="5" y="6" width="1" height="1" fill="#DF3E23" />
<rect x="6" y="6" width="1" height="1" fill="#F9A31B" />
<rect x="7" y="6" width="1" height="1" fill="#73172D" />
<rect x="3" y="7" width="1" height="1" fill="#FFFFFF" />
<rect x="5" y="7" width="1" height="1" fill="#73172D" />
<rect x="6" y="7" width="1" height="1" fill="#73172D" />
<rect x="7" y="7" width="1" height="1" fill="#73172D" />
</svg>